<svg version="1.0" xmlns="http://www.w3.org/2000/svg" viewBox="0 0 1024 1024">
    <path fill="#010101" transform="translate(-256 -180) scale(1.5)" d="M349.5 322.4c-6.2 2.8-10.5 9.4-10.5 16.2 0 10.7 11.1 19.5 21 16.5 8.1-2.4 13-9 13-17.3-.1-11.8-12.8-20.2-23.5-15.4zM494.4 183c-15.7 4.1-29.7 12.5-44.6 26.8-11.4 11-21.4 22.5-29 33.6l-5.5 7.9-15.9.2c-12.1.1-18.4.7-26.4 2.4-31.4 6.6-61.3 21.2-92.2 45.1-13.4 10.3-43.8 39.8-48.4 46.9-2.7 4.1-2.9 5.2-2.8 13.5.1 5 .9 12 1.8 15.6 2.3 8.8 10.4 25.1 16.5 33.1 12.3 16.2 34.7 34.2 54.7 43.9l9.2 4.4-.5 11.6c-2.3 48.6 20.8 100.6 58.9 132.7 6.2 5.2 21.1 16.2 25.5 18.8.6.4-4.3 9.5-8.3 15.6-5.5 8.3-12.4 13.2-21.4 15.3-3.6.8-9.6 2.2-13.5 3-3.8.9-9.4 2.8-12.3 4.3-11.1 5.6-20 19.3-21 32.2-.4 6.5-.3 7 2.6 10.2l3 3.4 38.7.3c43.3.3 50.7-.4 62-5.7 8.7-4 16.5-10.2 26.5-20.8 7.6-8.1 17.5-19.9 21.3-25.4l1.6-2.2 8.8 2.6c12.9 3.9 28.1 7.4 40.4 9.3l10.8 1.7-3.5 4c-5.9 6.9-10.3 18.2-10.4 26.4 0 2.2.9 4.3 2.9 6.5l2.9 3.3 67.4.3c57 .2 69 0 78.1-1.3 39.2-5.7 72.6-29.6 90.2-64.6 5.9-11.6 11-26.7 14.2-41.8 2.5-11.6 2.7-14.4 2.7-35.6 0-20.9-.3-24.3-2.8-37-11-57-44-105.6-93.7-138.2-24.2-15.8-55.4-29.1-85.8-36.4-8.5-2-9.2-2.3-7.5-3.6 6.6-4.8 19.1-16.4 24-22.3 15.2-18.1 26-43.2 28.3-65.5 1.6-15.5-1.1-28.9-7.7-39.1-6.9-10.6-16.8-17.9-28.7-21-11-3-31.1-1.3-46.3 3.7l-6.3 2.1-5.9-6.5c-10.9-11.9-19.8-15.7-35.9-15.6-6 0-12.3.7-16.7 1.9zm35.3 20.4c2.9 1.6 6 3.7 6.8 4.6 1.5 1.6 1.1 2.1-6.1 6-12.6 6.9-31.2 19.9-49.6 34.6-9.5 7.7-17.8 14.2-18.4 14.6-.6.4-3.8-.3-7-1.5-3.3-1.3-8.9-3.2-12.6-4.2-3.8-1-6.8-2.1-6.8-2.5 0-1.4 13.3-17.3 22-26.3 10.2-10.7 18.9-17.3 28.8-22.2 10.3-5 17-6.5 28.2-6.2 8.3.2 10.2.6 14.7 3.1zm78.1 15.7c15.5 7.9 19.3 23.2 12.6 49.9-9.9 39-46.5 74.1-84.3 81-3.6.6-13.6 1.5-22.3 1.9-11.8.5-16.2 1-17.3 2.1-.8.8-2.5 5.3-3.9 10-7.9 27.2-17.5 44.2-33.2 59-11.2 10.4-21 16.3-35.3 21.1-4.6 1.6-9 3.4-9.7 4-2 1.7-1.7 4.6.7 7 1.8 1.8 2.8 2 7.8 1.4 10.5-1.2 18.6-3.6 27.6-8 25.1-12.2 46.3-38.3 56.3-69 3-9 3-9 6.8-9.7 2.2-.4 6.6-.7 10-.7 8.7-.1 23.5-2.8 33.4-6.1l8.6-2.8 9.1 1.8c44.5 9.2 80.6 24.6 110.5 47.1 17.8 13.4 39.1 37 50 55.4 24.9 42 33.1 93.3 21.8 137.1-12.2 47.2-44.9 77.5-90 83.4-9.7 1.2-125 1.3-125 .1 0-1.8 6.6-9.6 10.8-12.8 7.7-5.9 12.5-6.6 37.1-5.8l21.8.7 2.1-2.7c1.2-1.5 2.2-3.6 2.2-4.7 0-3-5.1-7.4-9.5-8.2-6.3-1.1-21.4-9-28.3-14.7-11.6-9.6-21.2-24.9-25.3-40.5-2.7-10.3-3-28.8-.6-38.8 6.3-25.4 24.1-46.7 48.1-57.6 9.6-4.4 12.1-9.3 7.1-14-2.3-2.2-2.8-2.3-7.9-1.1-2.9.6-8.5 2.7-12.5 4.6-26.4 12.7-44.5 35.1-51.8 64.3-2.7 10.8-2.4 35.1.6 46.7 4.1 15.9 12.8 32 23.1 42.7l4.8 5-8.1-.7c-13.3-1-30.7-3.3-41.3-5.5-8.5-1.7-28.3-6.8-29.2-7.5-.2-.2.8-2.5 2.1-5.2 3-6 6.7-16.6 6.7-19.3 0-3.5-4.5-7.2-8.3-6.8-2.6.2-3.6 1.1-5.6 4.8-6.2 11.8-14 24.1-22.2 35-10 13.4-26.8 31-34.4 35.8-9.6 6.3-11.4 6.5-50.2 7-23.2.2-35.3 0-35.3-.6 0-1.9 6.6-9.6 10.5-12.4 2.9-2 7.6-3.6 16.6-5.6 6.9-1.6 14.8-3.9 17.5-5.2 14.2-6.8 27.2-28.9 36.9-62.4 3.1-10.9 3.2-16.4.5-19.4-2.5-2.7-7.1-2.9-9.2-.5-.9 1-3 6.4-4.7 12.1l-3.2 10.3-9.2-6.3c-12.4-8.4-30.5-26.6-38.6-38.7-16.8-25.4-24.7-49.6-25.8-79.5-.6-15.2-.5-15.8 1.3-15.3 4 1.3 15.1 2.7 20.7 2.7 4.8 0 6.2-.4 8.2-2.5 5-4.9 2.2-11.8-5.2-13-12-1.9-16.8-3-26-6-25.7-8.5-50.6-25.8-65.9-45.6-4.6-6-12.4-19.5-12.4-21.7 0-.8 1.6-1.2 4.5-1.2 6.4 0 11-4.1 11-9.9 0-6.3-2.8-8.5-11.8-9.1l-7.2-.5L261 341c37.9-37.9 76-61.1 113.3-69.2 13.6-2.9 38-3.1 50.7-.4 11.4 2.4 22.7 6.1 31.8 10.2 4.1 1.9 7.7 3.4 8.1 3.4.4 0 6.5-4.8 13.6-10.6 30-24.6 49.1-37.7 68-46.9 18.8-9.1 32.2-12.7 45.9-12.1 7.6.3 9.7.8 15.4 3.7z" />
</svg>