<svg width="550" height="550" fill="none" xmlns="http://www.w3.org/2000/svg"><path d="M405.536 150.978c7.811-7.811 20.474-7.811 28.284 0l110.309 110.308c7.811 7.811 7.811 20.474 0 28.285L289.571 544.129c-7.811 7.811-20.474 7.811-28.285 0L150.978 433.82c-7.811-7.81-7.811-20.473 0-28.284l254.558-254.558z" fill="#A96462"/><path d="M260.701 6.142c7.81-7.81 20.473-7.81 28.284 0l110.308 110.309c7.811 7.81 7.811 20.474 0 28.284L288.985 255.044c-7.811 7.81-20.474 7.81-28.284 0L150.392 144.735c-7.811-7.81-7.811-20.474 0-28.284L260.701 6.142z" fill="#FDF4E2"/><path d="M116.865 149.978c7.811-7.811 20.474-7.811 28.284 0l110.309 110.308c7.811 7.811 7.811 20.474 0 28.285L145.149 398.879c-7.81 7.811-20.473 7.811-28.284 0L6.556 288.571c-7.81-7.811-7.81-20.474 0-28.285l110.309-110.308z" fill="#F5C2A0"/></svg>